<?xml version="1.0" encoding="UTF-8"?>
<!DOCTYPE svg PUBLIC "-//W3C//DTD SVG 1.1//EN" "http://www.w3.org/Graphics/SVG/1.1/DTD/svg11.dtd">
<!-- Creator: CorelDRAW X8 -->
<svg xmlns="http://www.w3.org/2000/svg" xml:space="preserve" width="21.6746mm" height="21.6746mm" version="1.1" style="shape-rendering:geometricPrecision; text-rendering:geometricPrecision; image-rendering:optimizeQuality; fill-rule:evenodd; clip-rule:evenodd"
viewBox="0 0 2167 2167"
 xmlns:xlink="http://www.w3.org/1999/xlink">
 <defs>
  <style type="text/css">
   <![CDATA[
    .fil0 {fill:#434242;fill-rule:nonzero}
   ]]>
  </style>
 </defs>
 <g id="Слой_x0020_1">
  <metadata id="CorelCorpID_0Corel-Layer"/>
  <g id="star.eps">
   <path class="fil0" d="M850 1489c-9,0 -19,-2 -26,-8 -15,-11 -22,-29 -18,-47l55 -240 -185 -162c-10,-8 -16,-21 -16,-33l0 -1c0,-4 1,-9 3,-13 5,-17 20,-30 38,-31l245 -22 96 -227c7,-16 24,-27 42,-27 18,0 34,11 41,27l97 227 244 22c18,1 33,14 39,31 1,4 2,9 2,14 0,12 -5,25 -15,33l-185 162 54 240c4,18 -2,36 -17,47 -15,10 -34,11 -50,2l-210 -126 -211 126c-7,4 -15,6 -23,6zm234 -186c8,0 16,2 23,6l199 119 -52 -226c-3,-16 2,-33 15,-44l174 -153 -231 -21c-16,-2 -31,-12 -37,-27l-91 -214 -91 214c-7,15 -21,25 -38,27l-231 21 175 153c12,11 18,27 14,44l-51 226 199 -119c7,-4 15,-6 23,-6zm-140 -367c0,0 0,0 0,0l0 0zm280 0l0 0c0,0 0,0 0,0z"/>
  </g>
 </g>
</svg>
