<?xml version="1.0" encoding="UTF-8"?>
<!DOCTYPE svg PUBLIC "-//W3C//DTD SVG 1.1//EN" "http://www.w3.org/Graphics/SVG/1.1/DTD/svg11.dtd">
<!-- Creator: CorelDRAW X8 -->
<svg xmlns="http://www.w3.org/2000/svg" xml:space="preserve" width="21.6746mm" height="21.6746mm" version="1.1" style="shape-rendering:geometricPrecision; text-rendering:geometricPrecision; image-rendering:optimizeQuality; fill-rule:evenodd; clip-rule:evenodd"
viewBox="0 0 2167 2167"
 xmlns:xlink="http://www.w3.org/1999/xlink">
 <defs>
  <style type="text/css">
   <![CDATA[
    .fil0 {fill:#434242;fill-rule:nonzero}
   ]]>
  </style>
 </defs>
 <g id="Слой_x0020_1">
  <metadata id="CorelCorpID_0Corel-Layer"/>
  <g id="pipe.eps">
   <path class="fil0" d="M1507 660l-364 0 0 67 50 0 0 224 -76 0 0 -49 -66 0 0 49 -109 0c-128,0 -232,104 -232,232l0 258 -50 0 0 66 364 0 0 -66 -49 0 0 -225 76 0 0 50 66 0 0 -50 109 0c128,0 231,-104 231,-231l0 -258 50 0 0 -67zm-549 490c-27,0 -50,22 -50,49l0 242 -132 0 0 -258c0,-91 74,-165 166,-165l109 0 0 132 -93 0zm433 -165c0,91 -74,165 -165,165l-109 0 0 -132 92 0c28,0 50,-23 50,-50l0 -241 132 0 0 258z"/>
  </g>
 </g>
</svg>
