<?xml version="1.0" encoding="UTF-8"?>
<!DOCTYPE svg PUBLIC "-//W3C//DTD SVG 1.1//EN" "http://www.w3.org/Graphics/SVG/1.1/DTD/svg11.dtd">
<!-- Creator: CorelDRAW X8 -->
<svg xmlns="http://www.w3.org/2000/svg" xml:space="preserve" width="21.6746mm" height="21.6746mm" version="1.1" style="shape-rendering:geometricPrecision; text-rendering:geometricPrecision; image-rendering:optimizeQuality; fill-rule:evenodd; clip-rule:evenodd"
viewBox="0 0 2167 2167"
 xmlns:xlink="http://www.w3.org/1999/xlink">
 <defs>
  <style type="text/css">
   <![CDATA[
    .fil0 {fill:#2F6DCA;fill-rule:nonzero}
   ]]>
  </style>
 </defs>
 <g id="Слой_x0020_1">
  <metadata id="CorelCorpID_0Corel-Layer"/>
  <g id="drag.eps">
   <path class="fil0" d="M1258 793c13,13 12,33 0,46 -7,7 -15,10 -24,10 -8,0 -17,-3 -23,-10l-102 -103c-6,-6 -15,-9 -24,-9 -8,0 -17,3 -23,9l-102 103c-13,13 -34,13 -47,0 -13,-13 -13,-33 0,-46l102 -103c19,-19 44,-30 70,-30 27,0 52,11 71,30l102 103zm-47 535l-102 103c-6,6 -15,10 -24,10 -8,0 -17,-4 -23,-10l-102 -103c-13,-13 -34,-13 -47,0 -13,13 -13,34 0,47l102 103c19,19 44,29 70,29 27,0 52,-10 71,-29l102 -103c13,-13 12,-34 0,-47 -13,-13 -34,-13 -47,0zm-372 -370c13,-12 13,-33 0,-46 -13,-13 -33,-13 -46,-1l-103 102c-19,19 -30,44 -30,71 0,26 11,51 30,70l103 102c6,6 14,10 23,10 8,0 17,-4 23,-10 13,-13 13,-34 0,-47l-103 -102c-6,-6 -9,-14 -9,-23 0,-9 3,-17 9,-24l103 -102zm639 55l-103 -102c-13,-12 -34,-12 -47,1 -13,13 -13,34 0,46l103 102c6,7 10,15 10,24 0,9 -4,17 -10,23l-103 102c-13,13 -13,34 0,47 7,6 15,10 24,10 8,0 16,-4 23,-10l103 -102c19,-19 29,-44 29,-70 0,-27 -10,-52 -29,-71zm-393 186c-63,0 -115,-51 -115,-115 0,-64 52,-116 115,-116 64,0 116,52 116,116 0,64 -52,115 -116,115zm0 -66c28,0 50,-22 50,-49 0,-28 -22,-50 -50,-50 -27,0 -49,22 -49,50 0,27 22,49 49,49z"/>
  </g>
 </g>
</svg>
