<?xml version="1.0" encoding="UTF-8"?>
<!DOCTYPE svg PUBLIC "-//W3C//DTD SVG 1.1//EN" "http://www.w3.org/Graphics/SVG/1.1/DTD/svg11.dtd">
<!-- Creator: CorelDRAW X8 -->
<svg xmlns="http://www.w3.org/2000/svg" xml:space="preserve" width="21.6746mm" height="21.6746mm" version="1.1" style="shape-rendering:geometricPrecision; text-rendering:geometricPrecision; image-rendering:optimizeQuality; fill-rule:evenodd; clip-rule:evenodd"
viewBox="0 0 2167 2167"
 xmlns:xlink="http://www.w3.org/1999/xlink">
 <defs>
  <style type="text/css">
   <![CDATA[
    .fil0 {fill:#2F6DCA;fill-rule:nonzero}
   ]]>
  </style>
 </defs>
 <g id="Слой_x0020_1">
  <metadata id="CorelCorpID_0Corel-Layer"/>
  <g id="sun.eps">
   <path class="fil0" d="M1084 869c118,0 214,97 214,215 0,0 0,0 0,0 0,0 0,0 0,0 0,118 -96,214 -214,214 -118,0 -215,-96 -215,-214 0,-118 97,-215 215,-215zm398 190l-136 0c-5,-54 -26,-104 -59,-143l96 -97c10,-9 10,-25 0,-35 -10,-9 -25,-9 -35,0l-96 96c-40,-32 -89,-54 -143,-59l0 -136c0,-13 -12,-25 -25,-25 -14,0 -25,12 -25,25l0 136c-54,5 -104,27 -143,59l-97 -96c-9,-9 -25,-9 -35,0 -9,10 -9,26 0,35l96 97c-32,39 -54,89 -59,143l-136 0 0 0c-13,0 -25,11 -25,25 0,13 12,25 25,25l136 0c5,54 27,103 59,143l-96 96c-9,10 -9,25 0,35 5,5 12,7 18,7 6,0 13,-2 17,-7l97 -96c39,33 89,54 143,59l0 136c0,14 11,25 25,25 13,0 25,-11 25,-25l0 -136c54,-5 103,-26 143,-59l96 96c5,5 11,7 18,7 6,0 12,-2 17,-7 10,-10 10,-25 0,-35l-96 -96c33,-40 54,-89 59,-143l136 0c14,0 25,-12 25,-25 0,-14 -11,-25 -25,-25z"/>
  </g>
 </g>
</svg>
